<mxfile host="app.diagrams.net" modified="2023-05-03T17:00:12.385Z" agent="Mozilla/5.0 (Windows NT 10.0; Win64; x64) AppleWebKit/537.36 (KHTML, like Gecko) Chrome/112.0.0.0 Safari/537.36" version="21.2.7" etag="Dm5vcMx1dYY9zXE4E-WF" type="github">
  <diagram name="Page-1" id="6tG3rJwtK8gUEcqBSo89">
    <mxGraphModel>
      <root>
        <mxCell id="0" />
        <mxCell id="1" parent="0" />
      </root>
    </mxGraphModel>
  </diagram>
</mxfile>
